include "hUGE.inc"

SECTION "Ending Song Data", ROMX

song_ending::
db 4
dw order_cnt
dw order1, order2, order3, order4
dw duty_instruments, wave_instruments, noise_instruments
dw 0
dw waves

order_cnt: db 66
order1: dw P0,P0,P0,P0,P0,P0,P0,P0,P0,P0,P0,P0,P13,P13,P13,P13,P17,P18,P19,P20,P17,P20,P17,P25,P17,P28,P31,P36,P39,P36,P39,P36,P0
order2: dw P1,P4,P1,P5,P1,P4,P1,P5,P1,P4,P1,P5,P9,P12,P9,P16,P9,P12,P9,P16,P9,P16,P9,P23,P24,P27,P32,P37,P38,P41,P42,P43,P1
order3: dw P2,P2,P2,P2,P3,P6,P3,P7,P3,P6,P3,P11,P10,P14,P10,P15,P10,P14,P10,P15,P21,P22,P21,P22,P26,P29,P33,P35,P33,P35,P33,P45,P2
order4: dw P2,P2,P2,P2,P2,P2,P2,P2,P8,P8,P8,P8,P8,P8,P8,P8,P8,P8,P8,P8,P8,P8,P8,P8,P8,P30,P34,P34,P34,P34,P34,P44,P46

P0:
 dn ___,0,$000
 dn ___,0,$000
 dn ___,0,$000
 dn ___,0,$8FE
 dn D#5,6,$C09
 dn ___,0,$000
 dn ___,0,$000
 dn ___,0,$000
 dn D_5,6,$C0A
 dn ___,0,$000
 dn ___,0,$000
 dn ___,0,$000
 dn D#5,6,$000
 dn ___,0,$000
 dn ___,0,$000
 dn ___,0,$000
 dn ___,0,$000
 dn ___,0,$000
 dn ___,0,$000
 dn ___,0,$000
 dn D#5,6,$C09
 dn ___,0,$000
 dn ___,0,$000
 dn ___,0,$000
 dn D_5,6,$C0A
 dn ___,0,$000
 dn ___,0,$000
 dn ___,0,$000
 dn D#5,6,$C09
 dn ___,0,$000
 dn ___,0,$000
 dn ___,0,$000
 dn ___,0,$000
 dn ___,0,$000
 dn ___,0,$000
 dn ___,0,$000
 dn D#5,6,$C09
 dn ___,0,$000
 dn ___,0,$000
 dn ___,0,$000
 dn D_5,6,$C0A
 dn ___,0,$000
 dn ___,0,$000
 dn ___,0,$000
 dn D#5,6,$000
 dn ___,0,$000
 dn ___,0,$000
 dn ___,0,$000
 dn ___,0,$000
 dn ___,0,$000
 dn ___,0,$000
 dn ___,0,$000
 dn D#5,6,$C09
 dn ___,0,$000
 dn ___,0,$000
 dn ___,0,$000
 dn D_5,6,$C0A
 dn ___,0,$000
 dn ___,0,$000
 dn ___,0,$000
 dn D#5,6,$C09
 dn ___,0,$000
 dn ___,0,$000
 dn ___,0,$000

P1:
 dn ___,0,$000
 dn ___,0,$000
 dn ___,0,$000
 dn ___,0,$000
 dn F_4,6,$000
 dn ___,0,$000
 dn ___,0,$000
 dn ___,0,$000
 dn ___,0,$000
 dn ___,0,$000
 dn ___,0,$000
 dn ___,0,$000
 dn F_4,6,$000
 dn ___,0,$000
 dn F_5,2,$000
 dn ___,0,$000
 dn ___,0,$000
 dn ___,0,$000
 dn ___,0,$000
 dn ___,0,$000
 dn F_4,6,$000
 dn ___,0,$000
 dn ___,0,$000
 dn ___,0,$000
 dn ___,0,$000
 dn ___,0,$000
 dn ___,0,$000
 dn ___,0,$000
 dn F_4,6,$000
 dn ___,0,$000
 dn ___,0,$000
 dn ___,0,$000
 dn ___,0,$000
 dn ___,0,$000
 dn ___,0,$000
 dn ___,0,$000
 dn G#4,6,$000
 dn ___,0,$000
 dn ___,0,$000
 dn ___,0,$000
 dn ___,0,$000
 dn ___,0,$000
 dn ___,0,$000
 dn ___,0,$000
 dn G#4,6,$000
 dn ___,0,$000
 dn G_5,2,$000
 dn ___,0,$000
 dn ___,0,$000
 dn ___,0,$000
 dn ___,0,$000
 dn ___,0,$000
 dn G#4,6,$000
 dn ___,0,$000
 dn ___,0,$000
 dn ___,0,$000
 dn ___,0,$000
 dn ___,0,$000
 dn ___,0,$000
 dn ___,0,$000
 dn G#4,6,$000
 dn ___,0,$000
 dn ___,0,$000
 dn ___,0,$000

P2:
 dn ___,0,$000
 dn ___,0,$000
 dn ___,0,$000
 dn ___,0,$000
 dn ___,0,$000
 dn ___,0,$000
 dn ___,0,$000
 dn ___,0,$000
 dn ___,0,$000
 dn ___,0,$000
 dn ___,0,$000
 dn ___,0,$000
 dn ___,0,$000
 dn ___,0,$000
 dn ___,0,$000
 dn ___,0,$000
 dn ___,0,$000
 dn ___,0,$000
 dn ___,0,$000
 dn ___,0,$000
 dn ___,0,$000
 dn ___,0,$000
 dn ___,0,$000
 dn ___,0,$000
 dn ___,0,$000
 dn ___,0,$000
 dn ___,0,$000
 dn ___,0,$000
 dn ___,0,$000
 dn ___,0,$000
 dn ___,0,$000
 dn ___,0,$000
 dn ___,0,$000
 dn ___,0,$000
 dn ___,0,$000
 dn ___,0,$000
 dn ___,0,$000
 dn ___,0,$000
 dn ___,0,$000
 dn ___,0,$000
 dn ___,0,$000
 dn ___,0,$000
 dn ___,0,$000
 dn ___,0,$000
 dn ___,0,$000
 dn ___,0,$000
 dn ___,0,$000
 dn ___,0,$000
 dn ___,0,$000
 dn ___,0,$000
 dn ___,0,$000
 dn ___,0,$000
 dn ___,0,$000
 dn ___,0,$000
 dn ___,0,$000
 dn ___,0,$000
 dn ___,0,$000
 dn ___,0,$000
 dn ___,0,$000
 dn ___,0,$000
 dn ___,0,$000
 dn ___,0,$000
 dn ___,0,$000
 dn ___,0,$000

P3:
 dn F_4,2,$000
 dn ___,0,$000
 dn ___,0,$000
 dn ___,0,$000
 dn ___,0,$000
 dn ___,0,$000
 dn ___,0,$000
 dn ___,0,$000
 dn ___,0,$000
 dn ___,0,$000
 dn ___,0,$000
 dn ___,0,$000
 dn ___,0,$000
 dn ___,0,$000
 dn ___,0,$000
 dn ___,0,$000
 dn ___,0,$000
 dn ___,0,$000
 dn ___,0,$000
 dn ___,0,$000
 dn ___,0,$000
 dn ___,0,$000
 dn ___,0,$000
 dn ___,0,$000
 dn ___,0,$000
 dn ___,0,$000
 dn ___,0,$000
 dn ___,0,$000
 dn ___,0,$000
 dn ___,0,$000
 dn ___,0,$000
 dn ___,0,$000
 dn G#4,2,$000
 dn ___,0,$000
 dn ___,0,$000
 dn ___,0,$000
 dn ___,0,$000
 dn ___,0,$000
 dn ___,0,$000
 dn ___,0,$000
 dn ___,0,$000
 dn ___,0,$000
 dn ___,0,$000
 dn ___,0,$000
 dn ___,0,$000
 dn ___,0,$000
 dn ___,0,$000
 dn ___,0,$000
 dn ___,0,$000
 dn ___,0,$000
 dn ___,0,$000
 dn ___,0,$000
 dn ___,0,$000
 dn ___,0,$000
 dn ___,0,$000
 dn ___,0,$000
 dn ___,0,$000
 dn ___,0,$000
 dn ___,0,$000
 dn ___,0,$000
 dn ___,0,$000
 dn ___,0,$000
 dn ___,0,$000
 dn ___,0,$000

P4:
 dn ___,0,$000
 dn ___,0,$000
 dn ___,0,$000
 dn ___,0,$000
 dn C_5,6,$000
 dn ___,0,$000
 dn ___,0,$000
 dn ___,0,$000
 dn ___,0,$000
 dn ___,0,$000
 dn ___,0,$000
 dn ___,0,$000
 dn C_5,6,$000
 dn ___,0,$000
 dn F_5,2,$000
 dn ___,0,$000
 dn ___,0,$000
 dn ___,0,$000
 dn ___,0,$000
 dn ___,0,$000
 dn C_5,6,$000
 dn ___,0,$000
 dn ___,0,$000
 dn ___,0,$000
 dn ___,0,$000
 dn ___,0,$000
 dn ___,0,$000
 dn ___,0,$000
 dn C_5,6,$000
 dn ___,0,$000
 dn ___,0,$000
 dn ___,0,$000
 dn ___,0,$000
 dn ___,0,$000
 dn ___,0,$000
 dn ___,0,$000
 dn A#4,6,$000
 dn ___,0,$000
 dn ___,0,$000
 dn ___,0,$000
 dn ___,0,$000
 dn ___,0,$000
 dn ___,0,$000
 dn ___,0,$000
 dn A#4,6,$000
 dn ___,0,$000
 dn G_5,2,$000
 dn ___,0,$000
 dn ___,0,$000
 dn ___,0,$000
 dn ___,0,$000
 dn ___,0,$000
 dn A#4,6,$000
 dn ___,0,$000
 dn ___,0,$000
 dn ___,0,$000
 dn ___,0,$000
 dn ___,0,$000
 dn ___,0,$000
 dn ___,0,$000
 dn A#4,6,$000
 dn ___,0,$000
 dn ___,0,$000
 dn ___,0,$000

P5:
 dn ___,0,$000
 dn ___,0,$000
 dn ___,0,$000
 dn ___,0,$000
 dn C_5,6,$000
 dn ___,0,$000
 dn ___,0,$000
 dn ___,0,$000
 dn ___,0,$000
 dn ___,0,$000
 dn ___,0,$000
 dn ___,0,$000
 dn C_5,6,$000
 dn ___,0,$000
 dn F_5,2,$000
 dn ___,0,$000
 dn ___,0,$000
 dn ___,0,$000
 dn ___,0,$000
 dn ___,0,$000
 dn C_5,6,$000
 dn ___,0,$000
 dn ___,0,$000
 dn ___,0,$000
 dn ___,0,$000
 dn ___,0,$000
 dn ___,0,$000
 dn ___,0,$000
 dn C_5,6,$000
 dn ___,0,$000
 dn ___,0,$000
 dn ___,0,$000
 dn ___,0,$000
 dn ___,0,$000
 dn ___,0,$000
 dn ___,0,$000
 dn D#5,6,$000
 dn ___,0,$000
 dn ___,0,$000
 dn ___,0,$000
 dn ___,0,$000
 dn ___,0,$000
 dn ___,0,$000
 dn ___,0,$000
 dn D#5,6,$000
 dn ___,0,$000
 dn G_5,2,$000
 dn ___,0,$000
 dn ___,0,$000
 dn ___,0,$000
 dn ___,0,$000
 dn ___,0,$000
 dn D#5,6,$000
 dn ___,0,$000
 dn ___,0,$000
 dn ___,0,$000
 dn ___,0,$000
 dn ___,0,$000
 dn ___,0,$000
 dn ___,0,$000
 dn D#5,6,$000
 dn ___,0,$000
 dn ___,0,$000
 dn ___,0,$000

P6:
 dn C_5,2,$000
 dn ___,0,$000
 dn ___,0,$000
 dn ___,0,$000
 dn ___,0,$000
 dn ___,0,$000
 dn ___,0,$000
 dn ___,0,$000
 dn ___,0,$000
 dn ___,0,$000
 dn ___,0,$000
 dn ___,0,$000
 dn ___,0,$000
 dn ___,0,$000
 dn ___,0,$000
 dn ___,0,$000
 dn ___,0,$000
 dn ___,0,$000
 dn ___,0,$000
 dn ___,0,$000
 dn ___,0,$000
 dn ___,0,$000
 dn ___,0,$000
 dn ___,0,$000
 dn ___,0,$000
 dn ___,0,$000
 dn ___,0,$000
 dn ___,0,$000
 dn ___,0,$000
 dn ___,0,$000
 dn ___,0,$000
 dn ___,0,$000
 dn A#4,2,$000
 dn ___,0,$000
 dn ___,0,$000
 dn ___,0,$000
 dn ___,0,$000
 dn ___,0,$000
 dn ___,0,$000
 dn ___,0,$000
 dn ___,0,$000
 dn ___,0,$000
 dn ___,0,$000
 dn ___,0,$000
 dn ___,0,$000
 dn ___,0,$000
 dn ___,0,$000
 dn ___,0,$000
 dn ___,0,$000
 dn ___,0,$000
 dn ___,0,$000
 dn ___,0,$000
 dn ___,0,$000
 dn ___,0,$000
 dn ___,0,$000
 dn ___,0,$000
 dn ___,0,$000
 dn ___,0,$000
 dn ___,0,$000
 dn ___,0,$000
 dn ___,0,$000
 dn ___,0,$000
 dn ___,0,$000
 dn ___,0,$000

P7:
 dn C_5,2,$000
 dn ___,0,$000
 dn ___,0,$000
 dn ___,0,$000
 dn ___,0,$000
 dn ___,0,$000
 dn ___,0,$000
 dn ___,0,$000
 dn ___,0,$000
 dn ___,0,$000
 dn ___,0,$000
 dn ___,0,$000
 dn ___,0,$000
 dn ___,0,$000
 dn ___,0,$000
 dn ___,0,$000
 dn ___,0,$000
 dn ___,0,$000
 dn ___,0,$000
 dn ___,0,$000
 dn ___,0,$000
 dn ___,0,$000
 dn ___,0,$000
 dn ___,0,$000
 dn ___,0,$000
 dn ___,0,$000
 dn ___,0,$000
 dn ___,0,$000
 dn ___,0,$000
 dn ___,0,$000
 dn ___,0,$000
 dn ___,0,$000
 dn D#5,2,$000
 dn ___,0,$000
 dn ___,0,$000
 dn ___,0,$000
 dn ___,0,$000
 dn ___,0,$000
 dn ___,0,$000
 dn ___,0,$000
 dn ___,0,$000
 dn ___,0,$000
 dn ___,0,$000
 dn ___,0,$000
 dn ___,0,$000
 dn ___,0,$000
 dn ___,0,$000
 dn ___,0,$000
 dn ___,0,$000
 dn ___,0,$000
 dn ___,0,$000
 dn ___,0,$000
 dn ___,0,$000
 dn ___,0,$000
 dn ___,0,$000
 dn ___,0,$000
 dn ___,0,$000
 dn ___,0,$000
 dn ___,0,$000
 dn ___,0,$000
 dn ___,0,$000
 dn ___,0,$000
 dn ___,0,$000
 dn ___,0,$000

P8:
 dn F_7,1,$000
 dn ___,0,$000
 dn ___,0,$000
 dn ___,0,$000
 dn F_7,1,$C17
 dn ___,0,$000
 dn ___,0,$000
 dn ___,0,$000
 dn ___,0,$000
 dn ___,0,$000
 dn ___,0,$000
 dn ___,0,$000
 dn F_7,1,$000
 dn ___,0,$000
 dn F_7,1,$C17
 dn ___,0,$000
 dn F_7,1,$C17
 dn ___,0,$000
 dn F_7,1,$C17
 dn ___,0,$000
 dn F_7,1,$000
 dn ___,0,$000
 dn ___,0,$000
 dn ___,0,$000
 dn ___,0,$000
 dn ___,0,$000
 dn ___,0,$000
 dn ___,0,$000
 dn F_7,1,$C18
 dn ___,0,$000
 dn ___,0,$000
 dn ___,0,$000
 dn F_7,1,$000
 dn ___,0,$000
 dn ___,0,$000
 dn ___,0,$000
 dn F_7,1,$C17
 dn ___,0,$000
 dn ___,0,$000
 dn ___,0,$000
 dn ___,0,$000
 dn ___,0,$000
 dn ___,0,$000
 dn ___,0,$000
 dn F_7,1,$000
 dn ___,0,$000
 dn F_7,1,$C17
 dn ___,0,$000
 dn F_7,1,$C17
 dn ___,0,$000
 dn F_7,1,$C17
 dn ___,0,$000
 dn F_7,1,$C17
 dn ___,0,$000
 dn ___,0,$000
 dn ___,0,$000
 dn ___,0,$000
 dn ___,0,$000
 dn ___,0,$000
 dn ___,0,$000
 dn F_7,1,$C18
 dn ___,0,$000
 dn ___,0,$000
 dn ___,0,$000

P9:
 dn F_3,4,$000
 dn ___,0,$000
 dn ___,0,$000
 dn ___,0,$000
 dn F_4,6,$000
 dn ___,0,$000
 dn ___,0,$000
 dn ___,0,$000
 dn F_3,4,$000
 dn ___,0,$000
 dn ___,0,$000
 dn ___,0,$000
 dn F_4,6,$000
 dn ___,0,$000
 dn ___,0,$000
 dn ___,0,$000
 dn F_3,4,$000
 dn ___,0,$000
 dn ___,0,$000
 dn ___,0,$000
 dn F_4,6,$000
 dn ___,0,$000
 dn ___,0,$000
 dn ___,0,$000
 dn F_3,4,$000
 dn ___,0,$000
 dn ___,0,$000
 dn ___,0,$000
 dn F_4,6,$000
 dn ___,0,$000
 dn ___,0,$000
 dn ___,0,$000
 dn G#3,4,$000
 dn ___,0,$000
 dn ___,0,$000
 dn ___,0,$000
 dn G#4,6,$000
 dn ___,0,$000
 dn ___,0,$000
 dn ___,0,$000
 dn G#3,4,$000
 dn ___,0,$000
 dn ___,0,$000
 dn ___,0,$000
 dn G#4,6,$000
 dn ___,0,$000
 dn ___,0,$000
 dn ___,0,$000
 dn G#3,4,$000
 dn ___,0,$000
 dn ___,0,$000
 dn ___,0,$000
 dn G#4,6,$000
 dn ___,0,$000
 dn ___,0,$000
 dn ___,0,$000
 dn G#3,4,$000
 dn ___,0,$000
 dn ___,0,$000
 dn ___,0,$000
 dn G#4,6,$000
 dn ___,0,$000
 dn ___,0,$000
 dn ___,0,$000

P10:
 dn C_7,7,$000
 dn D_7,7,$000
 dn ___,0,$000
 dn ___,0,$000
 dn ___,0,$000
 dn ___,0,$000
 dn ___,0,$000
 dn ___,0,$000
 dn D#7,7,$000
 dn ___,0,$000
 dn ___,0,$000
 dn ___,0,$000
 dn A#6,7,$000
 dn ___,0,$000
 dn ___,0,$000
 dn ___,0,$000
 dn ___,0,$000
 dn ___,0,$000
 dn ___,0,$000
 dn ___,0,$000
 dn ___,0,$000
 dn ___,0,$000
 dn ___,0,$000
 dn ___,0,$000
 dn ___,0,$000
 dn ___,0,$000
 dn ___,0,$000
 dn ___,0,$000
 dn ___,0,$000
 dn ___,0,$000
 dn ___,0,$000
 dn ___,0,$000
 dn ___,0,$000
 dn ___,0,$000
 dn ___,0,$000
 dn ___,0,$000
 dn A#6,9,$C00
 dn ___,0,$000
 dn ___,0,$000
 dn ___,0,$000
 dn ___,0,$000
 dn ___,0,$000
 dn ___,0,$000
 dn ___,0,$000
 dn G_6,7,$000
 dn ___,0,$000
 dn G_6,7,$000
 dn ___,0,$000
 dn A#6,7,$000
 dn C_7,7,$000
 dn ___,0,$000
 dn ___,0,$000
 dn ___,0,$000
 dn ___,0,$000
 dn ___,0,$000
 dn ___,0,$000
 dn ___,0,$000
 dn ___,0,$000
 dn ___,0,$000
 dn ___,0,$000
 dn ___,0,$000
 dn ___,0,$000
 dn ___,0,$000
 dn ___,0,$000

P11:
 dn C_5,2,$000
 dn ___,0,$000
 dn ___,0,$000
 dn ___,0,$000
 dn ___,0,$000
 dn ___,0,$000
 dn ___,0,$000
 dn ___,0,$000
 dn ___,0,$000
 dn ___,0,$000
 dn ___,0,$000
 dn ___,0,$000
 dn ___,0,$000
 dn ___,0,$000
 dn ___,0,$000
 dn ___,0,$000
 dn ___,0,$000
 dn ___,0,$000
 dn ___,0,$000
 dn ___,0,$000
 dn ___,0,$000
 dn ___,0,$000
 dn ___,0,$000
 dn ___,0,$000
 dn ___,0,$000
 dn ___,0,$000
 dn ___,0,$000
 dn ___,0,$000
 dn ___,0,$000
 dn ___,0,$000
 dn ___,0,$000
 dn ___,0,$000
 dn D#5,2,$000
 dn ___,0,$000
 dn ___,0,$000
 dn ___,0,$000
 dn ___,0,$C00
 dn ___,0,$000
 dn ___,0,$000
 dn ___,0,$000
 dn D#5,2,$000
 dn ___,0,$000
 dn ___,0,$000
 dn ___,0,$000
 dn ___,0,$C00
 dn ___,0,$000
 dn ___,0,$000
 dn ___,0,$000
 dn D#5,2,$000
 dn ___,0,$000
 dn ___,0,$000
 dn ___,0,$000
 dn ___,0,$C00
 dn ___,0,$000
 dn ___,0,$000
 dn ___,0,$000
 dn D#5,2,$000
 dn ___,0,$000
 dn ___,0,$000
 dn ___,0,$000
 dn ___,0,$C00
 dn ___,0,$000
 dn ___,0,$000
 dn ___,0,$000

P12:
 dn C_4,4,$000
 dn ___,0,$000
 dn ___,0,$000
 dn ___,0,$000
 dn C_5,6,$000
 dn ___,0,$000
 dn ___,0,$000
 dn ___,0,$000
 dn C_4,4,$000
 dn ___,0,$000
 dn ___,0,$000
 dn ___,0,$000
 dn C_5,6,$000
 dn ___,0,$000
 dn ___,0,$000
 dn ___,0,$000
 dn C_4,4,$000
 dn ___,0,$000
 dn ___,0,$000
 dn ___,0,$000
 dn C_5,6,$000
 dn ___,0,$000
 dn ___,0,$000
 dn ___,0,$000
 dn C_4,4,$000
 dn ___,0,$000
 dn ___,0,$000
 dn ___,0,$000
 dn C_5,6,$000
 dn ___,0,$000
 dn ___,0,$000
 dn ___,0,$000
 dn A#3,4,$000
 dn ___,0,$000
 dn ___,0,$000
 dn ___,0,$000
 dn A#4,6,$000
 dn ___,0,$000
 dn ___,0,$000
 dn ___,0,$000
 dn A#3,4,$000
 dn ___,0,$000
 dn ___,0,$000
 dn ___,0,$000
 dn A#4,6,$000
 dn ___,0,$000
 dn ___,0,$000
 dn ___,0,$000
 dn A#3,4,$000
 dn ___,0,$000
 dn ___,0,$000
 dn ___,0,$000
 dn A#4,6,$000
 dn ___,0,$000
 dn ___,0,$000
 dn ___,0,$000
 dn A#3,4,$000
 dn ___,0,$000
 dn ___,0,$000
 dn ___,0,$000
 dn A#4,6,$000
 dn ___,0,$000
 dn ___,0,$000
 dn ___,0,$000

P13:
 dn ___,0,$000
 dn ___,0,$000
 dn ___,0,$000
 dn ___,0,$000
 dn D#5,6,$C09
 dn ___,0,$000
 dn ___,0,$000
 dn ___,0,$000
 dn D_5,6,$C0A
 dn ___,0,$000
 dn ___,0,$000
 dn ___,0,$000
 dn D#5,6,$000
 dn ___,0,$000
 dn F_5,2,$8FF
 dn ___,0,$000
 dn ___,0,$000
 dn ___,0,$000
 dn ___,0,$000
 dn ___,0,$8FE
 dn D#5,6,$C09
 dn ___,0,$000
 dn ___,0,$000
 dn ___,0,$000
 dn D_5,6,$C0A
 dn ___,0,$000
 dn ___,0,$000
 dn ___,0,$000
 dn D#5,6,$C09
 dn ___,0,$000
 dn ___,0,$000
 dn ___,0,$000
 dn ___,0,$000
 dn ___,0,$000
 dn ___,0,$000
 dn ___,0,$000
 dn D#5,6,$C09
 dn ___,0,$000
 dn ___,0,$000
 dn ___,0,$000
 dn D_5,6,$C0A
 dn ___,0,$000
 dn ___,0,$000
 dn ___,0,$000
 dn D#5,6,$000
 dn ___,0,$000
 dn G_5,2,$8FF
 dn ___,0,$000
 dn ___,0,$000
 dn ___,0,$000
 dn ___,0,$000
 dn ___,0,$8FE
 dn D#5,6,$C09
 dn ___,0,$000
 dn ___,0,$000
 dn ___,0,$000
 dn D_5,6,$C0A
 dn ___,0,$000
 dn ___,0,$000
 dn ___,0,$000
 dn D#5,6,$C09
 dn ___,0,$000
 dn ___,0,$000
 dn ___,0,$000

P14:
 dn C_7,7,$000
 dn D_7,7,$000
 dn ___,0,$000
 dn ___,0,$000
 dn ___,0,$000
 dn ___,0,$000
 dn ___,0,$000
 dn ___,0,$000
 dn D#7,7,$000
 dn ___,0,$000
 dn ___,0,$000
 dn ___,0,$000
 dn C_7,7,$000
 dn ___,0,$000
 dn ___,0,$000
 dn ___,0,$000
 dn ___,0,$000
 dn ___,0,$000
 dn ___,0,$000
 dn ___,0,$000
 dn ___,0,$000
 dn ___,0,$000
 dn ___,0,$000
 dn ___,0,$000
 dn ___,0,$000
 dn ___,0,$000
 dn ___,0,$000
 dn ___,0,$000
 dn ___,0,$000
 dn ___,0,$000
 dn ___,0,$000
 dn ___,0,$000
 dn ___,0,$000
 dn ___,0,$000
 dn ___,0,$000
 dn ___,0,$000
 dn A#6,9,$C00
 dn ___,0,$000
 dn ___,0,$000
 dn ___,0,$000
 dn ___,0,$000
 dn ___,0,$000
 dn ___,0,$000
 dn ___,0,$000
 dn D#7,7,$000
 dn ___,0,$000
 dn ___,0,$000
 dn ___,0,$000
 dn F_7,7,$000
 dn ___,0,$000
 dn ___,0,$000
 dn ___,0,$000
 dn D#7,7,$000
 dn ___,0,$000
 dn ___,0,$000
 dn ___,0,$000
 dn D_7,7,$000
 dn ___,0,$000
 dn ___,0,$000
 dn ___,0,$000
 dn A#6,7,$000
 dn ___,0,$000
 dn ___,0,$000
 dn ___,0,$000

P15:
 dn D_7,7,$000
 dn ___,0,$000
 dn ___,0,$000
 dn ___,0,$000
 dn ___,0,$000
 dn ___,0,$000
 dn ___,0,$000
 dn ___,0,$000
 dn D#7,7,$000
 dn ___,0,$000
 dn ___,0,$000
 dn ___,0,$000
 dn F_7,7,$000
 dn ___,0,$000
 dn ___,0,$000
 dn ___,0,$000
 dn ___,0,$000
 dn ___,0,$000
 dn ___,0,$000
 dn ___,0,$000
 dn D#7,7,$000
 dn ___,0,$000
 dn ___,0,$000
 dn ___,0,$000
 dn ___,0,$000
 dn ___,0,$000
 dn ___,0,$000
 dn ___,0,$000
 dn D_7,7,$000
 dn ___,0,$000
 dn ___,0,$000
 dn ___,0,$000
 dn ___,0,$000
 dn ___,0,$000
 dn ___,0,$000
 dn ___,0,$000
 dn ___,0,$000
 dn ___,0,$000
 dn ___,0,$000
 dn ___,0,$000
 dn A#6,7,$000
 dn ___,0,$000
 dn ___,0,$000
 dn ___,0,$000
 dn ___,0,$000
 dn ___,0,$000
 dn ___,0,$000
 dn ___,0,$000
 dn G#6,7,$000
 dn ___,0,$000
 dn ___,0,$000
 dn ___,0,$000
 dn ___,0,$000
 dn ___,0,$000
 dn ___,0,$000
 dn ___,0,$000
 dn G_6,7,$000
 dn ___,0,$000
 dn ___,0,$000
 dn ___,0,$000
 dn ___,0,$000
 dn ___,0,$000
 dn ___,0,$000
 dn ___,0,$000

P16:
 dn C_4,4,$000
 dn ___,0,$000
 dn ___,0,$000
 dn ___,0,$000
 dn C_5,6,$000
 dn ___,0,$000
 dn ___,0,$000
 dn ___,0,$000
 dn C_4,4,$000
 dn ___,0,$000
 dn ___,0,$000
 dn ___,0,$000
 dn C_5,6,$000
 dn ___,0,$000
 dn ___,0,$000
 dn ___,0,$000
 dn C_4,4,$000
 dn ___,0,$000
 dn ___,0,$000
 dn ___,0,$000
 dn C_5,6,$000
 dn ___,0,$000
 dn ___,0,$000
 dn ___,0,$000
 dn C_4,4,$000
 dn ___,0,$000
 dn ___,0,$000
 dn ___,0,$000
 dn C_5,6,$000
 dn ___,0,$000
 dn ___,0,$000
 dn ___,0,$000
 dn D#4,4,$000
 dn ___,0,$000
 dn ___,0,$000
 dn ___,0,$000
 dn D#5,6,$000
 dn ___,0,$000
 dn ___,0,$000
 dn ___,0,$000
 dn D#4,4,$000
 dn ___,0,$000
 dn ___,0,$000
 dn ___,0,$000
 dn D#5,6,$000
 dn ___,0,$000
 dn ___,0,$000
 dn ___,0,$000
 dn D#4,4,$000
 dn ___,0,$000
 dn ___,0,$000
 dn ___,0,$000
 dn D#5,6,$000
 dn ___,0,$000
 dn ___,0,$000
 dn ___,0,$000
 dn D#4,4,$000
 dn ___,0,$000
 dn ___,0,$000
 dn ___,0,$000
 dn D#5,6,$000
 dn ___,0,$000
 dn ___,0,$000
 dn ___,0,$000

P17:
 dn C_5,3,$8EF
 dn ___,0,$000
 dn ___,0,$000
 dn ___,0,$8FE
 dn D#5,6,$C09
 dn ___,0,$000
 dn ___,0,$000
 dn ___,0,$000
 dn D_5,6,$C0A
 dn ___,0,$000
 dn ___,0,$000
 dn ___,0,$000
 dn D#5,6,$000
 dn ___,0,$000
 dn F_5,2,$8FF
 dn ___,0,$000
 dn D_5,3,$8EF
 dn ___,0,$000
 dn ___,0,$000
 dn ___,0,$8FE
 dn D#5,6,$C09
 dn ___,0,$000
 dn ___,0,$000
 dn ___,0,$000
 dn D_5,6,$C0A
 dn ___,0,$000
 dn ___,0,$000
 dn ___,0,$000
 dn D#5,6,$C09
 dn ___,0,$000
 dn ___,0,$000
 dn ___,0,$000
 dn D#5,3,$8EF
 dn ___,0,$000
 dn ___,0,$000
 dn ___,0,$8FE
 dn D#5,6,$C09
 dn ___,0,$000
 dn ___,0,$000
 dn ___,0,$000
 dn D_5,6,$C0A
 dn ___,0,$000
 dn ___,0,$000
 dn ___,0,$000
 dn D#5,6,$000
 dn ___,0,$000
 dn G_5,2,$8FF
 dn ___,0,$000
 dn A#4,3,$8EF
 dn ___,0,$000
 dn ___,0,$000
 dn ___,0,$8FE
 dn D#5,6,$C09
 dn ___,0,$000
 dn ___,0,$000
 dn ___,0,$000
 dn D_5,6,$C0A
 dn ___,0,$000
 dn ___,0,$000
 dn ___,0,$000
 dn D#5,6,$C09
 dn ___,0,$000
 dn ___,0,$000
 dn ___,0,$000

P18:
 dn D#5,3,$8EF
 dn ___,0,$000
 dn ___,0,$000
 dn ___,0,$8FE
 dn D#5,6,$C09
 dn ___,0,$000
 dn ___,0,$000
 dn ___,0,$000
 dn D_5,6,$C0A
 dn ___,0,$000
 dn ___,0,$000
 dn ___,0,$000
 dn D#5,6,$000
 dn ___,0,$000
 dn F_5,2,$8FF
 dn ___,0,$000
 dn F_5,3,$8EF
 dn ___,0,$000
 dn ___,0,$000
 dn ___,0,$8FE
 dn D#5,6,$C09
 dn ___,0,$000
 dn ___,0,$000
 dn ___,0,$000
 dn D_5,6,$C0A
 dn ___,0,$000
 dn ___,0,$000
 dn ___,0,$000
 dn D#5,6,$C09
 dn ___,0,$000
 dn ___,0,$000
 dn ___,0,$000
 dn D_5,3,$8EF
 dn ___,0,$000
 dn ___,0,$000
 dn ___,0,$8FE
 dn D#5,6,$C09
 dn ___,0,$000
 dn ___,0,$000
 dn ___,0,$000
 dn D_5,6,$C0A
 dn ___,0,$000
 dn ___,0,$000
 dn ___,0,$000
 dn D#5,6,$000
 dn ___,0,$000
 dn G_5,2,$8FF
 dn ___,0,$000
 dn A#4,3,$8EF
 dn ___,0,$000
 dn ___,0,$000
 dn ___,0,$8FE
 dn D#5,6,$C09
 dn ___,0,$000
 dn ___,0,$000
 dn ___,0,$000
 dn D_5,6,$C0A
 dn ___,0,$000
 dn ___,0,$000
 dn ___,0,$000
 dn D#5,6,$C09
 dn ___,0,$000
 dn ___,0,$000
 dn ___,0,$000

P19:
 dn C_5,3,$8EF
 dn ___,0,$000
 dn ___,0,$000
 dn ___,0,$8FE
 dn D#5,6,$C09
 dn ___,0,$000
 dn ___,0,$000
 dn ___,0,$000
 dn D_5,6,$C0A
 dn ___,0,$000
 dn ___,0,$000
 dn ___,0,$000
 dn D#5,6,$000
 dn ___,0,$000
 dn F_5,2,$8FF
 dn ___,0,$000
 dn D_5,3,$8EF
 dn ___,0,$000
 dn ___,0,$000
 dn ___,0,$8FE
 dn D#5,6,$C09
 dn ___,0,$000
 dn ___,0,$000
 dn ___,0,$000
 dn D_5,6,$C0A
 dn ___,0,$000
 dn ___,0,$000
 dn ___,0,$000
 dn D#5,6,$C09
 dn ___,0,$000
 dn ___,0,$000
 dn ___,0,$000
 dn D#5,3,$8EF
 dn ___,0,$000
 dn ___,0,$000
 dn ___,0,$8FE
 dn D#5,6,$C09
 dn ___,0,$000
 dn ___,0,$000
 dn ___,0,$000
 dn D_5,6,$C0A
 dn ___,0,$000
 dn ___,0,$000
 dn ___,0,$000
 dn D#5,6,$000
 dn ___,0,$000
 dn G_5,2,$8FF
 dn ___,0,$000
 dn F_5,3,$8EF
 dn ___,0,$000
 dn ___,0,$000
 dn ___,0,$8FE
 dn D#5,6,$C09
 dn ___,0,$000
 dn ___,0,$000
 dn ___,0,$000
 dn D_5,6,$C0A
 dn ___,0,$000
 dn ___,0,$000
 dn ___,0,$000
 dn D#5,6,$C09
 dn ___,0,$000
 dn ___,0,$000
 dn ___,0,$000

P20:
 dn G_5,3,$8EF
 dn ___,0,$000
 dn ___,0,$000
 dn ___,0,$8FE
 dn D#5,6,$C09
 dn ___,0,$000
 dn ___,0,$000
 dn ___,0,$000
 dn D_5,6,$C0A
 dn ___,0,$000
 dn ___,0,$000
 dn ___,0,$000
 dn D#5,6,$000
 dn ___,0,$000
 dn F_5,2,$8FF
 dn ___,0,$000
 dn F_5,3,$8EF
 dn ___,0,$000
 dn ___,0,$000
 dn ___,0,$8FE
 dn D#5,6,$C09
 dn ___,0,$000
 dn ___,0,$000
 dn ___,0,$000
 dn D_5,6,$C0A
 dn ___,0,$000
 dn ___,0,$000
 dn ___,0,$000
 dn D#5,6,$C09
 dn ___,0,$000
 dn ___,0,$000
 dn ___,0,$000
 dn D#5,3,$8EF
 dn ___,0,$000
 dn ___,0,$000
 dn ___,0,$8FE
 dn D#5,6,$C09
 dn ___,0,$000
 dn ___,0,$000
 dn ___,0,$000
 dn D_5,6,$C0A
 dn ___,0,$000
 dn ___,0,$000
 dn ___,0,$000
 dn D#5,6,$000
 dn ___,0,$000
 dn G_5,2,$8FF
 dn ___,0,$000
 dn D_5,3,$8EF
 dn ___,0,$000
 dn ___,0,$000
 dn ___,0,$8FE
 dn D#5,6,$C09
 dn ___,0,$000
 dn ___,0,$000
 dn ___,0,$000
 dn D_5,6,$C0A
 dn ___,0,$000
 dn ___,0,$000
 dn ___,0,$000
 dn D#5,6,$C09
 dn ___,0,$000
 dn ___,0,$000
 dn ___,0,$000

P21:
 dn C_7,5,$000
 dn D_7,5,$301
 dn ___,0,$301
 dn ___,0,$301
 dn ___,0,$442
 dn ___,0,$442
 dn ___,0,$442
 dn ___,0,$442
 dn D#7,5,$000
 dn ___,0,$000
 dn ___,0,$000
 dn ___,0,$000
 dn A#6,5,$000
 dn ___,0,$000
 dn ___,0,$442
 dn ___,0,$442
 dn ___,0,$442
 dn ___,0,$442
 dn ___,0,$442
 dn ___,0,$442
 dn G_6,5,$000
 dn ___,0,$000
 dn ___,0,$000
 dn ___,0,$000
 dn ___,0,$000
 dn ___,0,$000
 dn ___,0,$000
 dn ___,0,$000
 dn A#6,5,$000
 dn C_7,5,$301
 dn ___,0,$301
 dn ___,0,$301
 dn ___,0,$301
 dn ___,0,$301
 dn ___,0,$301
 dn ___,0,$301
 dn ___,0,$442
 dn ___,0,$442
 dn ___,0,$442
 dn ___,0,$442
 dn ___,0,$442
 dn ___,0,$442
 dn ___,0,$442
 dn ___,0,$442
 dn ___,0,$442
 dn ___,0,$442
 dn ___,0,$442
 dn ___,0,$442
 dn ___,0,$C08
 dn ___,0,$442
 dn ___,0,$442
 dn ___,0,$442
 dn ___,0,$442
 dn ___,0,$442
 dn ___,0,$442
 dn ___,0,$442
 dn ___,0,$C04
 dn ___,0,$442
 dn ___,0,$442
 dn ___,0,$442
 dn ___,0,$442
 dn ___,0,$442
 dn ___,0,$442
 dn ___,0,$442

P22:
 dn C_7,5,$000
 dn D_7,5,$301
 dn ___,0,$301
 dn ___,0,$301
 dn ___,0,$442
 dn ___,0,$442
 dn ___,0,$442
 dn ___,0,$442
 dn D#7,5,$000
 dn ___,0,$000
 dn ___,0,$000
 dn ___,0,$000
 dn C_7,5,$000
 dn ___,0,$000
 dn ___,0,$442
 dn ___,0,$442
 dn ___,0,$442
 dn ___,0,$442
 dn ___,0,$442
 dn ___,0,$442
 dn D#7,5,$000
 dn ___,0,$000
 dn ___,0,$000
 dn ___,0,$000
 dn ___,0,$000
 dn ___,0,$000
 dn ___,0,$000
 dn ___,0,$000
 dn D#7,5,$000
 dn F_7,5,$302
 dn ___,0,$302
 dn ___,0,$302
 dn ___,0,$443
 dn ___,0,$443
 dn ___,0,$443
 dn ___,0,$443
 dn D#7,5,$000
 dn ___,0,$000
 dn ___,0,$000
 dn ___,0,$000
 dn F_7,5,$C04
 dn ___,0,$000
 dn ___,0,$000
 dn ___,0,$000
 dn C_7,5,$000
 dn D_7,5,$302
 dn ___,0,$302
 dn ___,0,$302
 dn ___,0,$442
 dn ___,0,$442
 dn ___,0,$442
 dn ___,0,$442
 dn A#6,5,$442
 dn ___,0,$442
 dn ___,0,$442
 dn ___,0,$442
 dn ___,0,$442
 dn ___,0,$442
 dn ___,0,$442
 dn ___,0,$442
 dn ___,0,$442
 dn ___,0,$442
 dn ___,0,$442
 dn ___,0,$442

P23:
 dn C_4,4,$000
 dn ___,0,$000
 dn ___,0,$000
 dn ___,0,$000
 dn C_5,6,$000
 dn ___,0,$000
 dn ___,0,$000
 dn ___,0,$000
 dn C_4,4,$000
 dn ___,0,$000
 dn ___,0,$000
 dn ___,0,$000
 dn C_5,6,$000
 dn ___,0,$000
 dn ___,0,$000
 dn ___,0,$000
 dn C_4,4,$000
 dn ___,0,$000
 dn ___,0,$000
 dn ___,0,$000
 dn C_5,6,$000
 dn ___,0,$000
 dn ___,0,$000
 dn ___,0,$000
 dn C_4,4,$000
 dn ___,0,$000
 dn ___,0,$000
 dn ___,0,$000
 dn C_5,6,$000
 dn ___,0,$000
 dn ___,0,$000
 dn ___,0,$000
 dn D_4,4,$000
 dn ___,0,$000
 dn ___,0,$000
 dn ___,0,$000
 dn D_5,6,$000
 dn ___,0,$000
 dn ___,0,$000
 dn ___,0,$000
 dn D_4,4,$000
 dn ___,0,$000
 dn ___,0,$000
 dn ___,0,$000
 dn D_5,6,$000
 dn ___,0,$000
 dn ___,0,$000
 dn ___,0,$000
 dn D_4,4,$000
 dn ___,0,$000
 dn ___,0,$000
 dn ___,0,$000
 dn D_5,6,$000
 dn ___,0,$000
 dn ___,0,$000
 dn ___,0,$000
 dn D_4,4,$000
 dn ___,0,$000
 dn ___,0,$000
 dn ___,0,$000
 dn D_5,6,$000
 dn ___,0,$000
 dn ___,0,$000
 dn ___,0,$000

P24:
 dn F_3,4,$000
 dn ___,0,$000
 dn ___,0,$000
 dn ___,0,$000
 dn F_4,6,$000
 dn ___,0,$000
 dn ___,0,$000
 dn ___,0,$000
 dn F_3,4,$000
 dn ___,0,$000
 dn ___,0,$000
 dn ___,0,$000
 dn F_4,6,$000
 dn ___,0,$000
 dn ___,0,$000
 dn ___,0,$000
 dn F_3,4,$000
 dn ___,0,$000
 dn ___,0,$000
 dn ___,0,$000
 dn F_4,6,$000
 dn ___,0,$000
 dn ___,0,$000
 dn ___,0,$000
 dn F_3,4,$000
 dn ___,0,$000
 dn ___,0,$000
 dn ___,0,$000
 dn F_4,6,$000
 dn ___,0,$000
 dn ___,0,$000
 dn ___,0,$000
 dn G_3,4,$000
 dn ___,0,$000
 dn ___,0,$000
 dn ___,0,$000
 dn G_4,6,$000
 dn ___,0,$000
 dn ___,0,$000
 dn ___,0,$000
 dn G_3,4,$000
 dn ___,0,$000
 dn ___,0,$000
 dn ___,0,$000
 dn G_4,6,$000
 dn ___,0,$000
 dn ___,0,$000
 dn ___,0,$000
 dn G_3,4,$000
 dn ___,0,$000
 dn ___,0,$000
 dn ___,0,$000
 dn G_4,6,$000
 dn ___,0,$000
 dn ___,0,$000
 dn ___,0,$000
 dn G_3,4,$000
 dn ___,0,$000
 dn ___,0,$000
 dn ___,0,$000
 dn G_4,6,$000
 dn ___,0,$000
 dn ___,0,$000
 dn ___,0,$000

P25:
 dn C_5,3,$8EF
 dn ___,0,$000
 dn ___,0,$000
 dn ___,0,$8FE
 dn D#5,6,$C09
 dn ___,0,$000
 dn ___,0,$000
 dn ___,0,$000
 dn D_5,6,$C0A
 dn ___,0,$000
 dn ___,0,$000
 dn ___,0,$000
 dn D#5,6,$000
 dn ___,0,$000
 dn F_5,2,$8FF
 dn ___,0,$000
 dn D#5,3,$8EF
 dn ___,0,$000
 dn ___,0,$000
 dn ___,0,$8FE
 dn D#5,6,$C09
 dn ___,0,$000
 dn ___,0,$000
 dn ___,0,$000
 dn D_5,6,$C0A
 dn ___,0,$000
 dn ___,0,$000
 dn ___,0,$000
 dn D#5,6,$C09
 dn ___,0,$000
 dn ___,0,$000
 dn ___,0,$000
 dn D_5,3,$8EF
 dn ___,0,$000
 dn ___,0,$000
 dn ___,0,$8FE
 dn D#5,6,$C09
 dn ___,0,$000
 dn ___,0,$000
 dn ___,0,$000
 dn D_5,6,$C0A
 dn ___,0,$000
 dn ___,0,$000
 dn ___,0,$000
 dn D#5,6,$000
 dn ___,0,$000
 dn G_5,2,$8FF
 dn ___,0,$000
 dn A#4,3,$8EF
 dn ___,0,$000
 dn ___,0,$000
 dn ___,0,$8FE
 dn D#5,6,$C09
 dn ___,0,$000
 dn ___,0,$000
 dn ___,0,$000
 dn D_5,6,$C0A
 dn ___,0,$000
 dn ___,0,$000
 dn ___,0,$000
 dn D#5,6,$C09
 dn ___,0,$000
 dn ___,0,$000
 dn ___,0,$000

P26:
 dn C_7,5,$000
 dn D_7,5,$301
 dn ___,0,$301
 dn ___,0,$301
 dn ___,0,$442
 dn ___,0,$442
 dn ___,0,$442
 dn ___,0,$442
 dn D#7,5,$000
 dn ___,0,$000
 dn ___,0,$000
 dn ___,0,$000
 dn A#6,5,$000
 dn ___,0,$000
 dn ___,0,$442
 dn ___,0,$442
 dn ___,0,$442
 dn ___,0,$442
 dn ___,0,$442
 dn ___,0,$442
 dn G_6,5,$000
 dn ___,0,$000
 dn ___,0,$000
 dn ___,0,$000
 dn ___,0,$000
 dn ___,0,$000
 dn ___,0,$000
 dn ___,0,$000
 dn C_7,5,$000
 dn D_7,5,$301
 dn ___,0,$301
 dn ___,0,$301
 dn ___,0,$301
 dn ___,0,$301
 dn ___,0,$301
 dn ___,0,$301
 dn ___,0,$442
 dn ___,0,$442
 dn ___,0,$442
 dn ___,0,$442
 dn ___,0,$442
 dn ___,0,$442
 dn ___,0,$442
 dn ___,0,$442
 dn ___,0,$442
 dn ___,0,$442
 dn ___,0,$442
 dn ___,0,$442
 dn ___,0,$C08
 dn ___,0,$442
 dn ___,0,$442
 dn ___,0,$442
 dn ___,0,$442
 dn ___,0,$442
 dn ___,0,$442
 dn ___,0,$442
 dn ___,0,$C04
 dn ___,0,$442
 dn ___,0,$442
 dn ___,0,$442
 dn ___,0,$442
 dn ___,0,$442
 dn ___,0,$442
 dn ___,0,$442

P27:
 dn G#3,4,$000
 dn ___,0,$000
 dn ___,0,$000
 dn ___,0,$000
 dn G#4,6,$000
 dn ___,0,$000
 dn ___,0,$000
 dn ___,0,$000
 dn G#3,4,$000
 dn ___,0,$000
 dn ___,0,$000
 dn ___,0,$000
 dn G#4,6,$000
 dn ___,0,$000
 dn ___,0,$000
 dn ___,0,$000
 dn G#3,4,$000
 dn ___,0,$000
 dn ___,0,$000
 dn ___,0,$000
 dn G#4,6,$000
 dn ___,0,$000
 dn ___,0,$000
 dn ___,0,$000
 dn G#3,4,$000
 dn ___,0,$000
 dn ___,0,$000
 dn ___,0,$000
 dn G#4,6,$000
 dn ___,0,$000
 dn ___,0,$000
 dn ___,0,$000
 dn A#3,4,$000
 dn ___,0,$000
 dn ___,0,$000
 dn ___,0,$000
 dn A#4,6,$000
 dn ___,0,$000
 dn ___,0,$000
 dn ___,0,$000
 dn A#3,4,$000
 dn ___,0,$000
 dn ___,0,$000
 dn ___,0,$000
 dn A#4,6,$000
 dn ___,0,$000
 dn ___,0,$000
 dn ___,0,$000
 dn A#3,4,$000
 dn ___,0,$000
 dn ___,0,$000
 dn ___,0,$000
 dn A#4,6,$000
 dn ___,0,$000
 dn ___,0,$000
 dn ___,0,$000
 dn A#3,4,$000
 dn ___,0,$000
 dn ___,0,$000
 dn ___,0,$000
 dn A#4,6,$000
 dn ___,0,$000
 dn ___,0,$000
 dn ___,0,$000

P28:
 dn D#5,3,$8EF
 dn ___,0,$000
 dn ___,0,$000
 dn ___,0,$8FE
 dn D#5,6,$C09
 dn ___,0,$000
 dn ___,0,$000
 dn ___,0,$000
 dn D_5,6,$C0A
 dn ___,0,$000
 dn ___,0,$000
 dn ___,0,$000
 dn D#5,6,$000
 dn ___,0,$000
 dn F_5,2,$8FF
 dn ___,0,$000
 dn F_5,3,$8EF
 dn ___,0,$000
 dn ___,0,$000
 dn ___,0,$8FE
 dn D#5,6,$C09
 dn ___,0,$000
 dn ___,0,$000
 dn ___,0,$000
 dn D_5,6,$C0A
 dn ___,0,$000
 dn ___,0,$000
 dn ___,0,$000
 dn D#5,6,$C09
 dn ___,0,$000
 dn ___,0,$000
 dn ___,0,$000
 dn G_5,3,$8EF
 dn ___,0,$000
 dn ___,0,$000
 dn ___,0,$8FE
 dn D#5,6,$C09
 dn ___,0,$000
 dn ___,0,$000
 dn ___,0,$000
 dn D_5,6,$C0A
 dn ___,0,$000
 dn ___,0,$000
 dn ___,0,$000
 dn D#5,6,$000
 dn ___,0,$000
 dn A#5,2,$8FF
 dn ___,0,$000
 dn D_5,3,$8EF
 dn ___,0,$000
 dn ___,0,$000
 dn ___,0,$8FE
 dn D#5,6,$C09
 dn ___,0,$000
 dn ___,0,$000
 dn ___,0,$000
 dn D_5,6,$C0A
 dn ___,0,$000
 dn ___,0,$000
 dn ___,0,$000
 dn D#5,6,$C09
 dn ___,0,$000
 dn ___,0,$000
 dn ___,0,$000

P29:
 dn C_7,5,$000
 dn D_7,5,$301
 dn ___,0,$301
 dn ___,0,$301
 dn ___,0,$442
 dn ___,0,$442
 dn ___,0,$442
 dn ___,0,$442
 dn D#7,5,$000
 dn ___,0,$000
 dn ___,0,$000
 dn ___,0,$000
 dn A#6,5,$000
 dn ___,0,$000
 dn ___,0,$442
 dn ___,0,$442
 dn ___,0,$442
 dn ___,0,$442
 dn ___,0,$442
 dn ___,0,$442
 dn G_6,5,$000
 dn ___,0,$000
 dn ___,0,$000
 dn ___,0,$000
 dn ___,0,$000
 dn ___,0,$000
 dn ___,0,$000
 dn ___,0,$000
 dn F_6,5,$000
 dn G_7,5,$310
 dn ___,0,$310
 dn ___,0,$310
 dn ___,0,$310
 dn ___,0,$310
 dn ___,0,$310
 dn ___,0,$310
 dn ___,0,$442
 dn ___,0,$442
 dn ___,0,$442
 dn ___,0,$442
 dn ___,0,$442
 dn ___,0,$442
 dn ___,0,$442
 dn ___,0,$442
 dn ___,0,$442
 dn ___,0,$442
 dn ___,0,$442
 dn ___,0,$442
 dn ___,0,$C08
 dn ___,0,$442
 dn ___,0,$442
 dn ___,0,$442
 dn ___,0,$442
 dn ___,0,$442
 dn ___,0,$442
 dn ___,0,$442
 dn ___,0,$C04
 dn ___,0,$442
 dn ___,0,$442
 dn ___,0,$442
 dn ___,0,$442
 dn ___,0,$442
 dn ___,0,$442
 dn ___,0,$442

P30:
 dn F_7,1,$000
 dn ___,0,$000
 dn ___,0,$000
 dn ___,0,$000
 dn F_7,1,$C17
 dn ___,0,$000
 dn ___,0,$000
 dn ___,0,$000
 dn ___,0,$000
 dn ___,0,$000
 dn ___,0,$000
 dn ___,0,$000
 dn F_7,1,$000
 dn ___,0,$000
 dn F_7,1,$C17
 dn ___,0,$000
 dn F_7,1,$C17
 dn ___,0,$000
 dn F_7,1,$C17
 dn ___,0,$000
 dn F_7,1,$000
 dn ___,0,$000
 dn ___,0,$000
 dn ___,0,$000
 dn ___,0,$000
 dn ___,0,$000
 dn ___,0,$000
 dn ___,0,$000
 dn F_7,1,$C18
 dn ___,0,$000
 dn ___,0,$000
 dn ___,0,$000
 dn F_7,1,$000
 dn ___,0,$000
 dn ___,0,$000
 dn ___,0,$000
 dn F_7,1,$C17
 dn ___,0,$000
 dn F_7,1,$C16
 dn ___,0,$000
 dn F_7,1,$000
 dn ___,0,$000
 dn ___,0,$000
 dn ___,0,$000
 dn F_7,1,$C17
 dn ___,0,$000
 dn F_7,1,$C16
 dn ___,0,$000
 dn F_7,1,$000
 dn ___,0,$000
 dn ___,0,$000
 dn ___,0,$000
 dn F_7,1,$C17
 dn ___,0,$000
 dn F_7,1,$C16
 dn ___,0,$000
 dn F_7,1,$000
 dn ___,0,$000
 dn ___,0,$000
 dn ___,0,$000
 dn F_7,1,$C18
 dn ___,0,$000
 dn ___,0,$000
 dn ___,0,$000

P31:
 dn C_4,4,$8BF
 dn ___,0,$000
 dn ___,0,$000
 dn ___,0,$000
 dn ___,0,$000
 dn ___,0,$000
 dn ___,0,$000
 dn ___,0,$000
 dn ___,0,$000
 dn ___,0,$000
 dn ___,0,$000
 dn ___,0,$000
 dn ___,0,$000
 dn ___,0,$000
 dn ___,0,$000
 dn ___,0,$000
 dn ___,0,$000
 dn ___,0,$000
 dn ___,0,$000
 dn ___,0,$000
 dn ___,0,$000
 dn ___,0,$000
 dn ___,0,$000
 dn ___,0,$000
 dn ___,0,$000
 dn ___,0,$000
 dn ___,0,$000
 dn ___,0,$000
 dn ___,0,$000
 dn ___,0,$000
 dn ___,0,$000
 dn ___,0,$000
 dn ___,0,$C7B
 dn ___,0,$000
 dn ___,0,$000
 dn ___,0,$000
 dn ___,0,$000
 dn ___,0,$000
 dn ___,0,$000
 dn ___,0,$000
 dn ___,0,$000
 dn ___,0,$000
 dn ___,0,$000
 dn ___,0,$000
 dn ___,0,$000
 dn ___,0,$000
 dn ___,0,$000
 dn ___,0,$000
 dn ___,0,$000
 dn ___,0,$000
 dn ___,0,$000
 dn ___,0,$000
 dn ___,0,$000
 dn ___,0,$000
 dn ___,0,$000
 dn ___,0,$000
 dn ___,0,$000
 dn ___,0,$000
 dn ___,0,$000
 dn ___,0,$000
 dn ___,0,$000
 dn ___,0,$000
 dn ___,0,$000
 dn ___,0,$000

P32:
 dn ___,0,$C7B
 dn ___,0,$000
 dn ___,0,$000
 dn ___,0,$000
 dn ___,0,$000
 dn ___,0,$000
 dn ___,0,$000
 dn ___,0,$000
 dn ___,0,$000
 dn ___,0,$000
 dn ___,0,$000
 dn ___,0,$000
 dn ___,0,$000
 dn ___,0,$000
 dn ___,0,$000
 dn ___,0,$000
 dn ___,0,$000
 dn ___,0,$000
 dn ___,0,$000
 dn ___,0,$000
 dn ___,0,$000
 dn ___,0,$000
 dn ___,0,$000
 dn ___,0,$000
 dn ___,0,$000
 dn ___,0,$000
 dn ___,0,$000
 dn ___,0,$000
 dn ___,0,$000
 dn ___,0,$000
 dn ___,0,$000
 dn ___,0,$000
 dn A#3,4,$000
 dn ___,0,$000
 dn ___,0,$000
 dn ___,0,$000
 dn ___,0,$000
 dn ___,0,$000
 dn ___,0,$000
 dn ___,0,$000
 dn ___,0,$000
 dn ___,0,$000
 dn ___,0,$000
 dn ___,0,$000
 dn ___,0,$000
 dn ___,0,$000
 dn ___,0,$000
 dn ___,0,$000
 dn ___,0,$000
 dn ___,0,$000
 dn ___,0,$000
 dn ___,0,$000
 dn ___,0,$000
 dn ___,0,$000
 dn ___,0,$000
 dn ___,0,$000
 dn ___,0,$000
 dn ___,0,$000
 dn ___,0,$000
 dn ___,0,$000
 dn ___,0,$000
 dn ___,0,$000
 dn ___,0,$000
 dn ___,0,$000

P33:
 dn G_5,8,$058
 dn ___,0,$058
 dn ___,0,$058
 dn ___,0,$058
 dn ___,0,$058
 dn ___,0,$058
 dn ___,0,$058
 dn ___,0,$058
 dn ___,0,$058
 dn ___,0,$058
 dn ___,0,$058
 dn ___,0,$058
 dn ___,0,$058
 dn ___,0,$058
 dn ___,0,$058
 dn ___,0,$058
 dn ___,0,$058
 dn ___,0,$058
 dn ___,0,$058
 dn ___,0,$058
 dn ___,0,$058
 dn ___,0,$058
 dn ___,0,$058
 dn ___,0,$058
 dn ___,0,$058
 dn ___,0,$058
 dn ___,0,$058
 dn ___,0,$058
 dn ___,0,$058
 dn ___,0,$058
 dn ___,0,$058
 dn ___,0,$058
 dn F_5,8,$059
 dn ___,0,$059
 dn ___,0,$059
 dn ___,0,$059
 dn ___,0,$059
 dn ___,0,$059
 dn ___,0,$059
 dn ___,0,$059
 dn ___,0,$059
 dn ___,0,$059
 dn ___,0,$059
 dn ___,0,$059
 dn ___,0,$059
 dn ___,0,$059
 dn ___,0,$059
 dn ___,0,$059
 dn ___,0,$059
 dn ___,0,$059
 dn ___,0,$059
 dn ___,0,$059
 dn ___,0,$059
 dn ___,0,$059
 dn ___,0,$059
 dn ___,0,$059
 dn ___,0,$059
 dn ___,0,$059
 dn ___,0,$059
 dn ___,0,$059
 dn ___,0,$059
 dn ___,0,$059
 dn ___,0,$059
 dn ___,0,$059

P34:
 dn F_7,1,$000
 dn ___,0,$000
 dn ___,0,$000
 dn ___,0,$000
 dn F_7,1,$C18
 dn ___,0,$000
 dn F_7,1,$C17
 dn ___,0,$000
 dn F_7,1,$000
 dn ___,0,$000
 dn ___,0,$000
 dn ___,0,$000
 dn F_7,1,$C18
 dn ___,0,$000
 dn F_7,1,$C17
 dn ___,0,$000
 dn F_7,1,$000
 dn ___,0,$000
 dn ___,0,$000
 dn ___,0,$000
 dn F_7,1,$C18
 dn ___,0,$000
 dn F_7,1,$C17
 dn ___,0,$000
 dn F_7,1,$000
 dn ___,0,$000
 dn ___,0,$000
 dn ___,0,$000
 dn F_7,1,$C18
 dn ___,0,$000
 dn F_7,1,$C17
 dn ___,0,$000
 dn F_7,1,$000
 dn ___,0,$000
 dn ___,0,$000
 dn ___,0,$000
 dn F_7,1,$C18
 dn ___,0,$000
 dn F_7,1,$C17
 dn ___,0,$000
 dn F_7,1,$000
 dn ___,0,$000
 dn ___,0,$000
 dn ___,0,$000
 dn F_7,1,$C18
 dn ___,0,$000
 dn F_7,1,$C17
 dn ___,0,$000
 dn F_7,1,$000
 dn ___,0,$000
 dn ___,0,$000
 dn ___,0,$000
 dn F_7,1,$C18
 dn ___,0,$000
 dn F_7,1,$C17
 dn ___,0,$000
 dn F_7,1,$000
 dn ___,0,$000
 dn ___,0,$000
 dn ___,0,$000
 dn F_7,1,$C19
 dn ___,0,$000
 dn ___,0,$000
 dn ___,0,$000

P35:
 dn G_5,8,$038
 dn ___,0,$038
 dn ___,0,$038
 dn ___,0,$038
 dn ___,0,$038
 dn ___,0,$038
 dn ___,0,$038
 dn ___,0,$038
 dn ___,0,$038
 dn ___,0,$038
 dn ___,0,$038
 dn ___,0,$038
 dn ___,0,$038
 dn ___,0,$038
 dn ___,0,$038
 dn ___,0,$038
 dn ___,0,$038
 dn ___,0,$038
 dn ___,0,$038
 dn ___,0,$038
 dn ___,0,$038
 dn ___,0,$038
 dn ___,0,$038
 dn ___,0,$038
 dn ___,0,$038
 dn ___,0,$038
 dn ___,0,$038
 dn ___,0,$038
 dn ___,0,$038
 dn ___,0,$038
 dn ___,0,$038
 dn ___,0,$038
 dn ___,0,$038
 dn ___,0,$038
 dn ___,0,$038
 dn ___,0,$038
 dn ___,0,$038
 dn ___,0,$038
 dn ___,0,$038
 dn ___,0,$038
 dn ___,0,$038
 dn ___,0,$038
 dn ___,0,$038
 dn ___,0,$038
 dn ___,0,$038
 dn ___,0,$038
 dn ___,0,$038
 dn ___,0,$038
 dn ___,0,$038
 dn ___,0,$038
 dn ___,0,$038
 dn ___,0,$038
 dn ___,0,$038
 dn ___,0,$038
 dn ___,0,$038
 dn ___,0,$038
 dn ___,0,$038
 dn ___,0,$038
 dn ___,0,$038
 dn ___,0,$038
 dn ___,0,$038
 dn ___,0,$038
 dn ___,0,$038
 dn ___,0,$038

P36:
 dn G#3,4,$000
 dn ___,0,$000
 dn ___,0,$000
 dn ___,0,$000
 dn ___,0,$000
 dn ___,0,$000
 dn ___,0,$000
 dn ___,0,$000
 dn ___,0,$000
 dn ___,0,$000
 dn ___,0,$000
 dn ___,0,$000
 dn ___,0,$000
 dn ___,0,$000
 dn ___,0,$000
 dn ___,0,$000
 dn ___,0,$000
 dn ___,0,$000
 dn ___,0,$000
 dn ___,0,$000
 dn ___,0,$000
 dn ___,0,$000
 dn ___,0,$000
 dn ___,0,$000
 dn ___,0,$000
 dn ___,0,$000
 dn ___,0,$000
 dn ___,0,$000
 dn ___,0,$000
 dn ___,0,$000
 dn ___,0,$000
 dn ___,0,$000
 dn ___,0,$000
 dn ___,0,$000
 dn ___,0,$000
 dn ___,0,$000
 dn ___,0,$000
 dn ___,0,$000
 dn ___,0,$000
 dn ___,0,$000
 dn ___,0,$000
 dn ___,0,$000
 dn ___,0,$000
 dn ___,0,$000
 dn ___,0,$000
 dn ___,0,$000
 dn ___,0,$000
 dn ___,0,$000
 dn ___,0,$000
 dn ___,0,$000
 dn ___,0,$000
 dn ___,0,$000
 dn ___,0,$000
 dn ___,0,$000
 dn ___,0,$000
 dn ___,0,$000
 dn ___,0,$C7B
 dn ___,0,$000
 dn ___,0,$000
 dn ___,0,$000
 dn ___,0,$000
 dn ___,0,$000
 dn ___,0,$000
 dn ___,0,$000

P37:
 dn ___,0,$C7B
 dn ___,0,$000
 dn ___,0,$000
 dn ___,0,$000
 dn ___,0,$000
 dn ___,0,$000
 dn ___,0,$000
 dn ___,0,$000
 dn ___,0,$000
 dn ___,0,$000
 dn ___,0,$000
 dn ___,0,$000
 dn ___,0,$000
 dn ___,0,$000
 dn ___,0,$000
 dn ___,0,$000
 dn ___,0,$000
 dn ___,0,$000
 dn ___,0,$000
 dn ___,0,$000
 dn ___,0,$000
 dn ___,0,$000
 dn ___,0,$000
 dn ___,0,$000
 dn ___,0,$000
 dn ___,0,$000
 dn ___,0,$000
 dn ___,0,$000
 dn ___,0,$000
 dn ___,0,$000
 dn ___,0,$000
 dn ___,0,$000
 dn ___,0,$000
 dn ___,0,$000
 dn ___,0,$000
 dn ___,0,$000
 dn ___,0,$000
 dn ___,0,$000
 dn ___,0,$000
 dn ___,0,$000
 dn ___,0,$000
 dn ___,0,$000
 dn ___,0,$000
 dn ___,0,$000
 dn ___,0,$000
 dn ___,0,$000
 dn ___,0,$000
 dn ___,0,$000
 dn ___,0,$000
 dn ___,0,$000
 dn ___,0,$000
 dn ___,0,$000
 dn ___,0,$000
 dn ___,0,$000
 dn ___,0,$000
 dn ___,0,$000
 dn A#3,4,$000
 dn ___,0,$000
 dn ___,0,$000
 dn ___,0,$000
 dn ___,0,$000
 dn ___,0,$000
 dn ___,0,$000
 dn ___,0,$000

P38:
 dn D_6,7,$0C0
 dn ___,0,$0C0
 dn ___,0,$0C0
 dn ___,0,$0C0
 dn D#6,7,$0C0
 dn ___,0,$0C0
 dn ___,0,$0C0
 dn ___,0,$0C0
 dn D_6,7,$0C0
 dn ___,0,$0C0
 dn ___,0,$0C0
 dn ___,0,$0C0
 dn C_6,7,$0C0
 dn ___,0,$0C0
 dn ___,0,$0C0
 dn ___,0,$0C0
 dn ___,0,$0C0
 dn ___,0,$0C0
 dn ___,0,$0C0
 dn ___,0,$0C0
 dn G_5,7,$0C0
 dn ___,0,$0C0
 dn ___,0,$0C0
 dn ___,0,$0C0
 dn G_5,7,$0C0
 dn ___,0,$0C0
 dn ___,0,$0C0
 dn ___,0,$0C0
 dn D_6,7,$0C0
 dn ___,0,$0C0
 dn ___,0,$0C0
 dn ___,0,$0C0
 dn ___,0,$0C0
 dn ___,0,$0C0
 dn ___,0,$0C0
 dn ___,0,$0C0
 dn D#6,7,$0C0
 dn ___,0,$0C0
 dn ___,0,$0C0
 dn ___,0,$0C0
 dn D_6,7,$0C0
 dn ___,0,$0C0
 dn ___,0,$0C0
 dn ___,0,$0C0
 dn C_6,7,$0C0
 dn ___,0,$0C0
 dn ___,0,$0C0
 dn ___,0,$0C0
 dn ___,0,$0C0
 dn ___,0,$0C0
 dn ___,0,$0C0
 dn ___,0,$0C0
 dn ___,0,$0C0
 dn ___,0,$0C0
 dn ___,0,$0C0
 dn ___,0,$0C0
 dn ___,0,$0C0
 dn ___,0,$0C0
 dn ___,0,$0C0
 dn ___,0,$0C0
 dn ___,0,$0C0
 dn ___,0,$0C0
 dn ___,0,$0C0
 dn ___,0,$0C0

P39:
 dn C_4,4,$8BD
 dn ___,0,$000
 dn ___,0,$000
 dn ___,0,$000
 dn ___,0,$000
 dn ___,0,$000
 dn ___,0,$000
 dn ___,0,$000
 dn ___,0,$000
 dn ___,0,$000
 dn ___,0,$000
 dn ___,0,$000
 dn ___,0,$000
 dn ___,0,$000
 dn ___,0,$000
 dn ___,0,$000
 dn ___,0,$000
 dn ___,0,$000
 dn ___,0,$000
 dn ___,0,$000
 dn ___,0,$000
 dn ___,0,$000
 dn ___,0,$000
 dn ___,0,$000
 dn ___,0,$000
 dn ___,0,$000
 dn ___,0,$000
 dn ___,0,$000
 dn ___,0,$000
 dn ___,0,$000
 dn ___,0,$000
 dn ___,0,$000
 dn A#3,4,$000
 dn ___,0,$000
 dn ___,0,$000
 dn ___,0,$000
 dn ___,0,$000
 dn ___,0,$000
 dn ___,0,$000
 dn ___,0,$000
 dn ___,0,$000
 dn ___,0,$000
 dn ___,0,$000
 dn ___,0,$000
 dn ___,0,$000
 dn ___,0,$000
 dn ___,0,$000
 dn ___,0,$000
 dn ___,0,$000
 dn ___,0,$000
 dn ___,0,$000
 dn ___,0,$000
 dn ___,0,$000
 dn ___,0,$000
 dn ___,0,$000
 dn ___,0,$000
 dn ___,0,$000
 dn ___,0,$000
 dn ___,0,$000
 dn ___,0,$000
 dn ___,0,$000
 dn ___,0,$000
 dn ___,0,$000
 dn ___,0,$000

P41:
 dn D_6,7,$0C0
 dn ___,0,$0C0
 dn ___,0,$0C0
 dn ___,0,$0C0
 dn D#6,7,$0C0
 dn ___,0,$0C0
 dn ___,0,$0C0
 dn ___,0,$0C0
 dn D_6,7,$0C0
 dn ___,0,$0C0
 dn ___,0,$0C0
 dn ___,0,$0C0
 dn C_6,7,$0C0
 dn ___,0,$0C0
 dn ___,0,$0C0
 dn ___,0,$0C0
 dn ___,0,$0C0
 dn ___,0,$0C0
 dn ___,0,$0C0
 dn ___,0,$0C0
 dn G_5,7,$0C0
 dn ___,0,$0C0
 dn ___,0,$0C0
 dn ___,0,$0C0
 dn G_5,7,$0C0
 dn ___,0,$0C0
 dn ___,0,$0C0
 dn ___,0,$0C0
 dn G_6,7,$0C0
 dn ___,0,$0C0
 dn ___,0,$0C0
 dn ___,0,$0C0
 dn ___,0,$0C0
 dn ___,0,$0C0
 dn ___,0,$0C0
 dn ___,0,$0C0
 dn ___,0,$0C0
 dn ___,0,$0C0
 dn ___,0,$0C0
 dn ___,0,$0C0
 dn ___,0,$0C0
 dn ___,0,$0C0
 dn ___,0,$0C0
 dn ___,0,$0C0
 dn ___,0,$0C0
 dn ___,0,$0C0
 dn ___,0,$0C0
 dn ___,0,$0C0
 dn ___,0,$0C0
 dn ___,0,$0C0
 dn ___,0,$0C0
 dn ___,0,$0C0
 dn ___,0,$0C0
 dn ___,0,$0C0
 dn ___,0,$0C0
 dn ___,0,$0C0
 dn A#3,4,$8BF
 dn ___,0,$000
 dn ___,0,$000
 dn ___,0,$000
 dn ___,0,$000
 dn ___,0,$000
 dn ___,0,$000
 dn ___,0,$000

P42:
 dn F_6,7,$090
 dn ___,0,$090
 dn ___,0,$090
 dn ___,0,$090
 dn G_6,7,$080
 dn ___,0,$080
 dn ___,0,$080
 dn ___,0,$080
 dn F_6,7,$090
 dn ___,0,$090
 dn ___,0,$090
 dn ___,0,$090
 dn D#6,7,$090
 dn ___,0,$090
 dn ___,0,$090
 dn ___,0,$090
 dn ___,0,$090
 dn ___,0,$090
 dn ___,0,$090
 dn ___,0,$090
 dn A#5,7,$090
 dn ___,0,$090
 dn ___,0,$090
 dn ___,0,$090
 dn A#5,7,$090
 dn ___,0,$090
 dn ___,0,$090
 dn ___,0,$090
 dn F_6,7,$090
 dn ___,0,$090
 dn ___,0,$090
 dn ___,0,$090
 dn ___,0,$090
 dn ___,0,$090
 dn ___,0,$090
 dn ___,0,$090
 dn G_6,7,$080
 dn ___,0,$080
 dn ___,0,$080
 dn ___,0,$080
 dn F_6,7,$090
 dn ___,0,$090
 dn ___,0,$090
 dn ___,0,$090
 dn D#6,7,$090
 dn ___,0,$090
 dn ___,0,$090
 dn ___,0,$090
 dn ___,0,$090
 dn ___,0,$090
 dn ___,0,$090
 dn ___,0,$090
 dn ___,0,$090
 dn ___,0,$090
 dn ___,0,$090
 dn ___,0,$090
 dn ___,0,$090
 dn ___,0,$090
 dn ___,0,$090
 dn ___,0,$090
 dn ___,0,$090
 dn ___,0,$090
 dn ___,0,$090
 dn ___,0,$090

P43:
 dn F_6,7,$090
 dn ___,0,$090
 dn ___,0,$090
 dn ___,0,$090
 dn G_6,7,$080
 dn ___,0,$080
 dn ___,0,$080
 dn ___,0,$080
 dn F_6,7,$090
 dn ___,0,$090
 dn ___,0,$090
 dn ___,0,$090
 dn D#6,7,$090
 dn ___,0,$090
 dn ___,0,$090
 dn ___,0,$090
 dn ___,0,$090
 dn ___,0,$090
 dn ___,0,$090
 dn ___,0,$090
 dn A#5,7,$090
 dn ___,0,$090
 dn ___,0,$090
 dn ___,0,$090
 dn A#5,7,$090
 dn ___,0,$090
 dn ___,0,$090
 dn ___,0,$090
 dn C_7,7,$070
 dn ___,0,$070
 dn ___,0,$070
 dn ___,0,$070
 dn ___,0,$070
 dn ___,0,$070
 dn ___,0,$070
 dn ___,0,$070
 dn ___,0,$070
 dn ___,0,$070
 dn ___,0,$070
 dn ___,0,$070
 dn ___,0,$070
 dn ___,0,$070
 dn ___,0,$070
 dn ___,0,$070
 dn ___,0,$070
 dn ___,0,$070
 dn ___,0,$070
 dn ___,0,$070
 dn ___,0,$070
 dn ___,0,$070
 dn ___,0,$070
 dn ___,0,$070
 dn ___,0,$070
 dn ___,0,$070
 dn ___,0,$070
 dn ___,0,$070
 dn ___,0,$070
 dn ___,0,$070
 dn ___,0,$070
 dn ___,0,$070
 dn ___,0,$070
 dn ___,0,$070
 dn ___,0,$070
 dn ___,0,$070

P44:
 dn F_7,1,$000
 dn ___,0,$000
 dn ___,0,$000
 dn ___,0,$000
 dn F_7,1,$C18
 dn ___,0,$000
 dn F_7,1,$C17
 dn ___,0,$000
 dn F_7,1,$000
 dn ___,0,$000
 dn ___,0,$000
 dn ___,0,$000
 dn F_7,1,$C18
 dn ___,0,$000
 dn F_7,1,$C17
 dn ___,0,$000
 dn F_7,1,$000
 dn ___,0,$000
 dn ___,0,$000
 dn ___,0,$000
 dn F_7,1,$C18
 dn ___,0,$000
 dn F_7,1,$C17
 dn ___,0,$000
 dn F_7,1,$000
 dn ___,0,$000
 dn ___,0,$000
 dn ___,0,$000
 dn F_7,1,$C18
 dn ___,0,$000
 dn F_7,1,$C17
 dn ___,0,$000
 dn F_7,1,$000
 dn ___,0,$000
 dn ___,0,$000
 dn ___,0,$000
 dn F_7,1,$C18
 dn ___,0,$000
 dn F_7,1,$C17
 dn ___,0,$000
 dn F_7,1,$000
 dn ___,0,$000
 dn ___,0,$000
 dn ___,0,$000
 dn F_7,1,$C18
 dn ___,0,$000
 dn F_7,1,$C17
 dn ___,0,$000
 dn F_7,1,$000
 dn ___,0,$000
 dn ___,0,$000
 dn ___,0,$000
 dn F_7,1,$C18
 dn ___,0,$000
 dn F_7,1,$C17
 dn ___,0,$000
 dn F_7,1,$000
 dn ___,0,$000
 dn ___,0,$000
 dn ___,0,$000
 dn ___,0,$000
 dn ___,0,$000
 dn ___,0,$000
 dn ___,0,$000

P45:
 dn G_5,8,$038
 dn ___,0,$038
 dn ___,0,$038
 dn ___,0,$038
 dn ___,0,$038
 dn ___,0,$038
 dn ___,0,$038
 dn ___,0,$038
 dn ___,0,$038
 dn ___,0,$038
 dn ___,0,$038
 dn ___,0,$038
 dn ___,0,$038
 dn ___,0,$038
 dn ___,0,$038
 dn ___,0,$038
 dn ___,0,$038
 dn ___,0,$038
 dn ___,0,$038
 dn ___,0,$038
 dn ___,0,$038
 dn ___,0,$038
 dn ___,0,$038
 dn ___,0,$038
 dn ___,0,$038
 dn ___,0,$038
 dn ___,0,$038
 dn ___,0,$038
 dn ___,0,$038
 dn ___,0,$038
 dn ___,0,$038
 dn ___,0,$038
 dn ___,0,$038
 dn ___,0,$038
 dn ___,0,$038
 dn ___,0,$038
 dn ___,0,$038
 dn ___,0,$038
 dn ___,0,$038
 dn ___,0,$038
 dn ___,0,$038
 dn ___,0,$038
 dn ___,0,$038
 dn ___,0,$038
 dn ___,0,$038
 dn ___,0,$038
 dn ___,0,$038
 dn ___,0,$038
 dn ___,0,$038
 dn ___,0,$038
 dn ___,0,$038
 dn ___,0,$038
 dn ___,0,$038
 dn ___,0,$038
 dn ___,0,$038
 dn ___,0,$038
 dn C_7,6,$E00
 dn ___,0,$000
 dn ___,0,$000
 dn ___,0,$000
 dn ___,0,$000
 dn ___,0,$000
 dn ___,0,$000
 dn ___,0,$000

P46:
 dn C_8,2,$000
 dn ___,0,$000
 dn ___,0,$000
 dn ___,0,$000
 dn ___,0,$000
 dn ___,0,$000
 dn ___,0,$000
 dn ___,0,$000
 dn ___,0,$000
 dn ___,0,$000
 dn ___,0,$000
 dn ___,0,$000
 dn ___,0,$000
 dn ___,0,$000
 dn ___,0,$000
 dn ___,0,$000
 dn ___,0,$000
 dn ___,0,$000
 dn ___,0,$000
 dn ___,0,$000
 dn ___,0,$000
 dn ___,0,$000
 dn ___,0,$000
 dn ___,0,$000
 dn ___,0,$000
 dn ___,0,$000
 dn ___,0,$000
 dn ___,0,$000
 dn ___,0,$000
 dn ___,0,$000
 dn ___,0,$000
 dn ___,0,$000
 dn ___,0,$000
 dn ___,0,$000
 dn ___,0,$000
 dn ___,0,$000
 dn ___,0,$000
 dn ___,0,$000
 dn ___,0,$000
 dn ___,0,$000
 dn ___,0,$000
 dn ___,0,$000
 dn ___,0,$000
 dn ___,0,$000
 dn ___,0,$000
 dn ___,0,$000
 dn ___,0,$000
 dn ___,0,$000
 dn ___,0,$000
 dn ___,0,$000
 dn ___,0,$000
 dn ___,0,$000
 dn ___,0,$000
 dn ___,0,$000
 dn ___,0,$000
 dn ___,0,$000
 dn ___,0,$000
 dn ___,0,$000
 dn ___,0,$000
 dn ___,0,$000
 dn ___,0,$000
 dn ___,0,$000
 dn ___,0,$000
 dn ___,0,$B02

itSquareSP2:
 dn ___,0,$103
 dn ___,0,$000
 dn ___,0,$000
 dn ___,0,$000
 dn ___,0,$000
 dn ___,0,$000
 dn ___,0,$000
 dn ___,0,$000
 dn ___,0,$000
 dn ___,0,$000
 dn ___,0,$000
 dn ___,0,$000
 dn ___,0,$000
 dn ___,0,$000
 dn ___,0,$000
 dn ___,0,$000
 dn ___,0,$000
 dn ___,0,$000
 dn ___,0,$000
 dn ___,0,$000
 dn ___,0,$000
 dn ___,0,$000
 dn ___,0,$000
 dn ___,0,$000
 dn ___,0,$000
 dn ___,0,$000
 dn ___,0,$000
 dn ___,0,$000
 dn ___,0,$000
 dn ___,0,$000
 dn ___,0,$000
 dn ___,1,$000

itSquareSP4:
 dn ___,0,$102
 dn ___,2,$486
 dn ___,0,$000
 dn ___,0,$000
 dn ___,0,$000
 dn ___,0,$000
 dn ___,0,$000
 dn ___,0,$000
 dn ___,0,$000
 dn ___,0,$000
 dn ___,0,$000
 dn ___,0,$000
 dn ___,0,$000
 dn ___,0,$000
 dn ___,0,$000
 dn ___,0,$000
 dn ___,0,$000
 dn ___,0,$000
 dn ___,0,$000
 dn ___,0,$000
 dn ___,0,$000
 dn ___,0,$000
 dn ___,0,$000
 dn ___,0,$000
 dn ___,0,$000
 dn ___,0,$000
 dn ___,0,$000
 dn ___,0,$000
 dn ___,0,$000
 dn ___,0,$000
 dn ___,0,$000
 dn ___,1,$000

itSquareSP6:
 dn ___,0,$102
 dn ___,0,$000
 dn ___,0,$000
 dn ___,0,$000
 dn ___,0,$000
 dn ___,0,$000
 dn ___,0,$000
 dn ___,0,$000
 dn ___,0,$000
 dn ___,0,$000
 dn ___,0,$000
 dn ___,0,$000
 dn ___,0,$000
 dn ___,0,$000
 dn ___,0,$000
 dn ___,0,$000
 dn ___,0,$000
 dn ___,0,$000
 dn ___,0,$000
 dn ___,0,$000
 dn ___,0,$000
 dn ___,0,$000
 dn ___,0,$000
 dn ___,0,$000
 dn ___,0,$000
 dn ___,0,$000
 dn ___,0,$000
 dn ___,0,$000
 dn ___,0,$000
 dn ___,0,$000
 dn ___,0,$000
 dn ___,1,$000

itWaveSP2:
 dn ___,0,$102
 dn ___,1,$486
 dn ___,0,$000
 dn ___,0,$000
 dn ___,0,$000
 dn ___,0,$000
 dn ___,0,$000
 dn ___,0,$000
 dn ___,0,$000
 dn ___,0,$000
 dn ___,0,$000
 dn ___,0,$000
 dn ___,0,$000
 dn ___,0,$000
 dn ___,0,$000
 dn ___,0,$000
 dn ___,0,$000
 dn ___,0,$000
 dn ___,0,$000
 dn ___,0,$000
 dn ___,0,$000
 dn ___,0,$000
 dn ___,0,$000
 dn ___,0,$000
 dn ___,0,$000
 dn ___,0,$000
 dn ___,0,$000
 dn ___,0,$000
 dn ___,0,$000
 dn ___,0,$000
 dn ___,0,$000
 dn ___,1,$000

itWaveSP7:
 dn ___,0,$102
 dn ___,0,$000
 dn ___,0,$000
 dn ___,0,$000
 dn ___,0,$C04
 dn ___,0,$201
 dn ___,0,$000
 dn ___,0,$000
 dn ___,0,$000
 dn ___,0,$000
 dn ___,0,$000
 dn ___,0,$000
 dn ___,0,$C08
 dn ___,0,$000
 dn ___,0,$000
 dn ___,0,$000
 dn ___,0,$000
 dn ___,0,$000
 dn ___,0,$000
 dn ___,0,$000
 dn ___,0,$000
 dn ___,0,$000
 dn ___,0,$101
 dn ___,4,$000
 dn ___,0,$000
 dn ___,0,$000
 dn ___,0,$000
 dn ___,0,$000
 dn ___,0,$000
 dn ___,0,$000
 dn ___,0,$000
 dn ___,1,$000

itWaveSP8:
 dn ___,0,$102
 dn ___,0,$000
 dn ___,0,$000
 dn ___,0,$000
 dn ___,0,$000
 dn ___,0,$201
 dn ___,0,$000
 dn ___,0,$000
 dn ___,0,$000
 dn ___,0,$000
 dn ___,0,$000
 dn ___,0,$000
 dn ___,0,$C08
 dn ___,0,$000
 dn ___,0,$000
 dn ___,0,$000
 dn ___,0,$000
 dn ___,0,$000
 dn ___,0,$000
 dn ___,0,$000
 dn ___,0,$000
 dn ___,0,$000
 dn ___,0,$101
 dn ___,0,$000
 dn ___,0,$000
 dn ___,0,$000
 dn ___,0,$000
 dn ___,0,$000
 dn ___,0,$000
 dn ___,0,$000
 dn ___,0,$000
 dn ___,1,$000

duty_instruments:
itSquareinst1:
db 8
db 0
db 240
dw 0
db 128

itSquareinst2:
db 8
db 64
db 179
dw itSquareSP2
db 128

itSquareinst3:
db 8
db 128
db 151
dw 0
db 128

itSquareinst4:
db 8
db 192
db 192
dw itSquareSP4
db 128

itSquareinst5:
db 8
db 0
db 241
dw 0
db 128

itSquareinst6:
db 8
db 64
db 178
dw itSquareSP6
db 128

itSquareinst7:
db 8
db 128
db 181
dw 0
db 128



wave_instruments:
itWaveinst1:
db 0
db 32
db 0
dw 0
db 128

itWaveinst2:
db 0
db 64
db 1
dw itWaveSP2
db 128

itWaveinst3:
db 0
db 32
db 2
dw 0
db 128

itWaveinst4:
db 0
db 32
db 3
dw 0
db 128

itWaveinst5:
db 0
db 32
db 4
dw 0
db 128

itWaveinst6:
db 0
db 32
db 5
dw 0
db 128

itWaveinst7:
db 0
db 32
db 6
dw itWaveSP7
db 128

itWaveinst8:
db 0
db 32
db 4
dw itWaveSP8
db 128

itWaveinst9:
db 0
db 32
db 8
dw 0
db 128



noise_instruments:
itNoiseinst1:
db 161
dw 0
db 0
ds 2

itNoiseinst2:
db 167
dw 0
db 0
ds 2


waves:
wave0: db 0,0,255,255,255,255,255,255,255,255,255,255,255,255,255,255
wave1: db 0,0,0,0,255,255,255,255,255,255,255,255,255,255,255,255
wave2: db 0,0,0,0,0,0,0,0,255,255,255,255,255,255,255,255
wave3: db 0,0,0,0,0,0,0,0,0,0,0,0,255,255,255,255
wave4: db 0,1,18,35,52,69,86,103,120,137,154,171,188,205,222,239
wave5: db 254,220,186,152,118,84,50,16,18,52,86,120,154,188,222,255
wave6: db 83,33,17,35,106,222,238,236,83,33,17,35,106,222,238,236
wave7: db 15,15,15,15,15,15,15,15,15,15,15,15,15,15,15,15
wave8: db 254,252,250,248,246,244,242,240,242,244,246,248,250,252,254,255
wave9: db 254,221,204,187,170,153,136,119,138,189,241,36,87,138,189,238
wave10: db 132,17,97,237,87,71,90,173,206,163,23,121,221,32,3,71
wave11: db 238,238,233,102,0,56,136,136,102,102,107,238,136,80,0,0
wave12: db 238,177,5,190,99,56,153,102,136,85,107,184,3,158,211,0
wave13: db 238,232,0,88,234,102,40,136,102,108,136,48,105,238,96,0
wave14: db 238,238,98,0,136,174,102,102,136,136,4,102,238,200,0,0

